<?xml version="1.0" encoding="UTF-8"?><svg xmlns="http://www.w3.org/2000/svg" xmlns:xlink="http://www.w3.org/1999/xlink" width="1012.5" zoomAndPan="magnify" viewBox="0 0 1012.5 487.499991" height="487.499991" preserveAspectRatio="xMidYMid meet" version="1.0"><path stroke-linecap="round" transform="matrix(3.747034, 0, 0, 3.748007, 333.428072, 51.166852)" fill="none" stroke-linejoin="miter" d="M 0.499784 0.00029805 L 95.72615 0.00029805 " stroke="rgb(60.778809%, 88.62915%, 47.839355%)" stroke-width="1" stroke-opacity="1" stroke-miterlimit="4"/><path stroke-linecap="round" transform="matrix(3.747034, 0, 0, 3.748007, 325.537523, 434.4461)" fill="none" stroke-linejoin="miter" d="M 0.499764 -0.000210045 L 95.72613 -0.000210045 " stroke="rgb(60.778809%, 88.62915%, 47.839355%)" stroke-width="1" stroke-opacity="1" stroke-miterlimit="4"/><path stroke-linecap="round" transform="matrix(3.753527, 0, 0, 3.748007, 56.883602, 73.245158)" fill="none" stroke-linejoin="miter" d="M 0.500361 0.000249695 L 67.400982 0.000249695 " stroke="rgb(60.778809%, 88.62915%, 47.839355%)" stroke-width="1" stroke-opacity="1" stroke-miterlimit="4"/><path stroke-linecap="round" transform="matrix(3.753527, 0, 0, 3.748007, 48.99306, 413.673087)" fill="none" stroke-linejoin="miter" d="M 0.500338 -0.000323284 L 67.40096 -0.000323284 " stroke="rgb(60.778809%, 88.62915%, 47.839355%)" stroke-width="1" stroke-opacity="1" stroke-miterlimit="4"/><path stroke-linecap="round" transform="matrix(2.800246, -2.454596, 2.470576, 2.818477, 309.13784, 74.031223)" fill="none" stroke-linejoin="miter" d="M 0.500087 0.000346293 L 9.1632 -0.0000733962 " stroke="rgb(60.778809%, 88.62915%, 47.839355%)" stroke-width="1" stroke-opacity="1" stroke-miterlimit="4"/><path stroke-linecap="round" transform="matrix(2.800246, -2.454596, 2.470576, 2.818477, 682.967615, 435.582462)" fill="none" stroke-linejoin="miter" d="M 0.499835 -0.0000357819 L 9.163737 0.00023153 " stroke="rgb(60.778809%, 88.62915%, 47.839355%)" stroke-width="1" stroke-opacity="1" stroke-miterlimit="4"/><path stroke-linecap="round" transform="matrix(-2.82722, -2.482898, 2.473198, -2.816176, 718.435827, 73.784238)" fill="none" stroke-linejoin="miter" d="M 0.499725 0.000178763 L 9.064597 0.000152154 " stroke="rgb(60.778809%, 88.62915%, 47.839355%)" stroke-width="1" stroke-opacity="1" stroke-miterlimit="4"/><path stroke-linecap="round" transform="matrix(-2.82722, -2.482898, 2.473198, -2.816176, 328.927651, 436.109609)" fill="none" stroke-linejoin="miter" d="M 0.499854 0.000474021 L 9.064041 -0.000335692 " stroke="rgb(60.778809%, 88.62915%, 47.839355%)" stroke-width="1" stroke-opacity="1" stroke-miterlimit="4"/><path stroke-linecap="round" transform="matrix(3.742675, 0, 0, 3.748007, 716.166747, 73.245158)" fill="none" stroke-linejoin="miter" d="M 0.500261 0.000249695 L 67.597983 0.000249695 " stroke="rgb(60.778809%, 88.62915%, 47.839355%)" stroke-width="1" stroke-opacity="1" stroke-miterlimit="4"/><path stroke-linecap="round" transform="matrix(3.742675, 0, 0, 3.748007, 708.276176, 413.673087)" fill="none" stroke-linejoin="miter" d="M 0.500247 -0.000323284 L 67.597969 -0.000323284 " stroke="rgb(60.778809%, 88.62915%, 47.839355%)" stroke-width="1" stroke-opacity="1" stroke-miterlimit="4"/></svg>